<?xml version="1.0" standalone="no"?>
<!DOCTYPE svg PUBLIC "-//W3C//DTD SVG 20010904//EN"
 "http://www.w3.org/TR/2001/REC-SVG-20010904/DTD/svg10.dtd">
<svg version="1.0" xmlns="http://www.w3.org/2000/svg"
 width="556.000000pt" height="555.000000pt" viewBox="0 0 556.000000 555.000000"
 preserveAspectRatio="xMidYMid meet">

<g transform="translate(0.000000,555.000000) scale(0.100000,-0.100000)"
fill="#000000" stroke="none">
<path d="M2597 5370 c-342 -27 -665 -116 -976 -271 -518 -257 -933 -672 -1190
-1190 -370 -746 -370 -1602 0 -2348 257 -518 672 -933 1190 -1190 745 -370
1603 -370 2348 0 525 260 937 675 1197 1204 185 377 267 734 267 1160 0 426
-82 783 -267 1160 -263 535 -676 948 -1211 1211 -262 128 -538 212 -815 248
-148 19 -405 27 -543 16z m553 -913 c53 -13 136 -41 185 -62 372 -154 565
-405 647 -840 19 -101 21 -158 25 -670 5 -570 0 -692 -33 -855 -38 -183 -115
-367 -217 -520 -61 -92 -229 -261 -316 -320 -317 -213 -713 -266 -1101 -147
l-75 23 -3 407 c-1 224 0 407 3 407 3 0 28 -11 55 -25 97 -49 192 -68 324 -63
110 3 127 7 188 35 121 57 200 151 245 290 37 117 46 293 40 813 -5 492 -8
520 -61 600 -52 79 -118 110 -235 110 -59 0 -87 -6 -126 -24 -65 -30 -132 -97
-164 -166 -55 -117 -24 -273 71 -354 64 -55 104 -70 198 -74 67 -3 96 0 138
16 l52 20 0 -409 c0 -385 -1 -409 -18 -418 -91 -48 -382 -77 -526 -51 -311 56
-581 268 -735 576 -81 164 -115 320 -115 529 0 157 13 249 55 380 57 178 147
324 289 466 141 141 295 238 479 299 149 50 224 60 441 56 170 -3 207 -7 290
-29z"/>
</g>
</svg>
